<svg width="169" height="36" viewBox="0 0 169 36" fill="none" xmlns="http://www.w3.org/2000/svg">
<path fill-rule="evenodd" clip-rule="evenodd" d="M13.8944 25.157C16.5816 29.5629 21.5101 32.5191 26.9952 32.5191C35.0997 32.5191 39.5611 25.5249 39.5611 25.5249L40.1354 27.388C36.3833 32.2679 29.6803 35.2075 22.181 35.2075C13.5469 35.2075 6.10052 31.0887 2.67424 25.1489C1.3842 22.9117 0.664062 20.4128 0.664062 17.781C0.664062 8.15657 10.2965 0.35498 22.1807 0.35498C30.5776 0.35498 37.3382 3.95162 40.8871 9.16383L26.7979 17.6007L34.8386 5.25405C32.5382 3.80728 29.7159 2.4525 26.7979 2.4525C18.5491 2.4525 11.755 9.33604 11.755 17.5846C11.755 20.3483 12.5399 22.9452 13.8944 25.157ZM51.6194 25.152C51.5772 25.4334 51.556 25.7176 51.5562 26.0022C51.5562 29.1333 54.0948 31.6722 57.2262 31.6722C60.3576 31.6722 62.8959 29.1337 62.8959 26.0022C62.8961 25.7166 62.8748 25.4314 62.8324 25.1489C62.4223 22.4242 60.0687 20.3325 57.2259 20.3325C54.3835 20.3325 52.0295 22.4242 51.6194 25.152ZM75.4761 34.641L72.6581 25.1489L68.4597 11.0074C68.4597 11.0074 65.8071 3.78436 57.4365 6.82967C49.066 9.87529 47.1784 11.0074 47.1784 11.0074H58.5234L61.2159 20.0095C59.1447 18.1799 56.1134 17.0258 52.736 17.0258C46.7857 17.0258 41.9095 20.6085 41.4654 25.1489C41.4437 25.3797 41.4326 25.6058 41.4326 25.8334C41.4326 30.6981 46.493 34.641 52.736 34.641C57.9538 34.641 62.3461 31.8866 63.6476 28.1413L65.5912 34.641H75.4761ZM104.263 25.1489V34.641H94.0915V13.786C94.0915 12.2514 92.8474 11.0074 91.3128 11.0074C90.1673 11.0071 89.139 11.7098 88.7231 12.7772V34.641H78.7407V11.0074H72.9189C72.9189 11.0074 81.0179 6.10087 83.8262 6.10087C86.4878 6.10087 88.4577 8.14573 88.7039 10.7506C89.458 10.3439 90.2108 9.92142 90.9541 9.50437C94.0714 7.75509 97.0194 6.10087 99.1773 6.10087C101.938 6.10087 104.186 8.30122 104.263 11.0445V25.1489ZM121.347 29.8275L119.931 25.1489L115.655 11.0071C115.887 9.1629 117.705 7.38069 119.613 7.38069C121.54 7.38069 123.126 8.83551 123.334 10.7069L127.56 25.1489L128.763 29.2613C128.779 29.4031 128.788 29.5471 128.788 29.6937C128.788 31.7611 127.112 33.4368 125.044 33.4368C123.022 33.4368 121.374 31.8327 121.347 29.8275ZM136.118 25.1508C134.192 30.9914 128.69 35.2075 122.204 35.2075C115.717 35.2075 110.216 30.9918 108.289 25.1489C107.801 23.6681 107.553 22.1187 107.555 20.5596C107.555 12.4696 114.113 5.91193 122.204 5.91193C130.294 5.91193 136.852 12.4696 136.852 20.5596C136.852 22.1631 136.594 23.7068 136.118 25.1508ZM152.958 34.641V25.1489V12.7772C153.374 11.7098 154.403 11.0071 155.548 11.0074C157.083 11.0074 158.327 12.2514 158.327 13.786V34.641H168.498V11.0445C168.422 8.30122 166.174 6.10087 163.413 6.10087C161.255 6.10087 158.308 7.7547 155.191 9.50374C154.447 9.921 153.694 10.3437 152.94 10.7506C152.693 8.14573 150.723 6.10087 148.061 6.10087C145.253 6.10087 137.393 11.0074 137.393 11.0074H142.976V34.641H152.958Z" fill="#ABAFC7"/>
</svg>
