<svg width="170" height="36" viewBox="0 0 170 36" fill="none" xmlns="http://www.w3.org/2000/svg">
<path fill-rule="evenodd" clip-rule="evenodd" d="M20.9781 0.516602C24.5858 1.10891 27.9781 3.10122 30.132 6.06276C30.5628 6.65506 30.9935 7.30122 31.3166 8.00122C30.7938 8.36315 30.271 8.71757 29.751 9.0701L29.7509 9.07016C28.8785 9.66165 28.0139 10.2478 27.1704 10.8551C26.9551 11.0166 26.7935 11.1243 26.5243 11.232C25.8781 9.6166 24.7474 8.16276 23.2935 7.19352C22.2166 6.49353 20.9781 6.00891 19.7397 5.73968C20.0427 4.35444 20.3805 2.9692 20.7252 1.55598L20.7252 1.55582C20.8092 1.21122 20.8937 0.864943 20.9781 0.516602ZM7.94737 2.07814C9.6166 1.53968 11.5551 2.40122 12.2551 3.96276C12.8474 5.14737 12.6858 6.70891 11.8781 7.73199C10.8551 9.02429 8.9166 9.50891 7.46276 8.75506C6.49352 8.27045 5.73968 7.35506 5.52429 6.27814C5.36276 5.47045 5.4166 4.60891 5.84737 3.85506C6.27814 2.99352 7.08583 2.40122 7.94737 2.07814ZM4.45538 20.4277C3.14514 20.4157 1.8428 20.4038 0.516602 20.4397C0.839678 23.0243 1.64737 25.5012 3.04737 27.5474C4.23199 29.4858 5.90122 31.1551 7.78583 32.3935C11.2858 34.7089 15.6474 35.5704 19.7935 35.032C21.8935 34.7628 23.9935 34.0628 25.8243 32.9858C28.6781 31.3166 30.8858 28.6781 32.0704 25.6089C32.2858 25.0704 32.5012 24.532 32.5551 23.9935C31.8065 23.7667 31.0771 23.5208 30.3507 23.2758C29.3527 22.9394 28.3604 22.6048 27.332 22.3243C26.9551 23.7243 26.2551 25.0166 25.3397 26.1474C23.9935 27.8166 22.1628 28.9474 20.1166 29.432C17.8551 29.9704 15.4858 29.8628 13.332 29.0551C11.7704 28.4628 10.3166 27.5474 9.18583 26.2551C7.73199 24.6397 6.8166 22.5935 6.43968 20.4397C5.77357 20.4397 5.11348 20.4337 4.45538 20.4277Z" fill="#ABAFC7"/>
<path fill-rule="evenodd" clip-rule="evenodd" d="M85.9162 13.1166C89.847 9.88582 95.9316 9.93966 99.97 13.0089C103.362 15.7012 104.278 20.332 103.955 24.4243C100.183 24.4602 96.3883 24.4482 92.6011 24.4362C90.7105 24.4302 88.8219 24.4243 86.9393 24.4243C87.2085 26.6858 88.447 29.0012 90.6547 29.8627C93.8316 31.4243 98.0316 29.9166 99.1624 26.4704C99.4626 26.5636 99.7609 26.6568 100.058 26.7496L100.058 26.7497L100.058 26.7497C101.306 27.1395 102.532 27.5225 103.793 27.8704C102.932 30.2397 101.37 32.4474 99.1085 33.6858C94.6931 36.2166 88.5547 35.4627 84.947 31.8012C79.9931 26.8474 80.37 17.532 85.9162 13.1166ZM49.8931 11.5012C45.4239 9.61658 39.8239 11.5012 37.2931 15.5935C33.9547 20.8166 34.6008 28.5704 39.3931 32.7704C43.27 36.1089 50.4316 36.2704 53.1777 31.3704C53.2047 31.9089 53.2316 32.4339 53.2585 32.9589C53.2854 33.4839 53.3124 34.0089 53.3393 34.5474H58.6162C58.3421 29.6474 58.3732 24.7474 58.4044 19.8474C58.4222 17.0474 58.44 14.2474 58.4008 11.4474H53.0162C53.0162 12.4704 53.0162 13.4397 53.07 14.4089C52.2624 13.1704 51.2931 12.0397 49.8931 11.5012ZM41.9239 27.4935C39.6624 23.6166 40.5239 16.9397 45.4777 15.7012C48.0624 15.055 51.0777 16.2397 52.2085 18.7166C53.6624 21.8935 53.447 26.0935 50.97 28.6781C48.4931 31.3166 43.647 30.6704 41.9239 27.4935ZM87.1607 19.9986C87.4415 19.0323 87.7351 18.022 88.447 17.2627C90.3854 14.9474 94.2085 14.732 96.5239 16.455C97.7624 17.3704 98.1931 18.8781 98.57 20.2781C95.7011 20.4398 92.8018 20.4194 89.9176 20.3992H89.9175H89.9173H89.9172H89.917C88.9581 20.3925 88.0009 20.3858 87.047 20.3858C87.0853 20.258 87.1229 20.1287 87.1607 19.9986ZM112.193 12.9012C115.909 10.0474 121.347 10.0474 125.278 12.4704C129.155 15.0012 130.447 20.0627 129.909 24.4243C126.139 24.3884 122.37 24.4003 118.601 24.4123L118.6 24.4123C116.716 24.4183 114.831 24.4243 112.947 24.4243C113.216 25.7704 113.539 27.1704 114.455 28.1935C116.501 30.7243 120.593 31.2089 123.178 29.2704C123.799 28.8216 124.199 28.1735 124.591 27.5391C124.81 27.1841 125.027 26.8334 125.278 26.5243C126.409 26.807 127.539 27.1805 128.67 27.5541C129.047 27.6786 129.424 27.8031 129.801 27.9243C128.939 30.3474 127.324 32.555 125.009 33.7935C120.647 36.1627 114.724 35.5166 111.17 32.0166C105.893 27.0089 106.324 17.2627 112.193 12.9012ZM113.106 20.029C113.389 19.0635 113.676 18.0834 114.347 17.3166C116.339 14.8397 120.378 14.6781 122.693 16.6166C123.824 17.5858 124.201 19.0397 124.47 20.3858H113.001C113.036 20.2674 113.071 20.1483 113.106 20.029ZM140.462 14.2474C143.532 9.50889 151.662 9.56274 154.247 14.732C156.724 10.4781 162.916 9.50889 166.793 12.3627C168.893 13.9781 169.862 16.6704 169.862 19.255C169.898 22.6283 169.886 26.0016 169.874 29.3749V29.3781C169.868 31.0653 169.862 32.7525 169.862 34.4397H164.532V20.8166C164.532 19.4166 164.316 17.9089 163.347 16.8858C161.301 14.8397 157.37 15.3781 156.024 17.9627C155.324 19.1474 155.324 20.6012 155.324 21.8935V34.4397H149.939C149.916 32.3394 149.923 30.2392 149.929 28.1432V28.1412V28.1411C149.938 25.3477 149.947 22.5618 149.885 19.7935C149.885 17.6397 148.109 15.6474 145.901 15.7012C143.316 15.3243 140.893 17.4243 140.732 19.955C140.635 22.8647 140.654 25.7743 140.673 28.6723V28.673C140.686 30.6015 140.699 32.5249 140.678 34.4397H135.239V11.3397H140.516C140.516 12.3627 140.516 13.332 140.462 14.2474ZM70.7854 11.3935H65.4008V34.4935H70.8931C70.92 32.5819 70.92 30.6704 70.92 28.7588C70.92 26.8473 70.92 24.9358 70.947 23.0243C71.0008 21.0858 71.5931 18.8781 73.3162 17.7474C74.77 16.6812 76.6163 16.749 78.3449 16.8125C78.537 16.8196 78.7277 16.8266 78.9162 16.832V11.1781C75.7393 10.7474 72.2393 11.9858 70.7316 15.0012C70.7316 14.4089 70.745 13.8031 70.7585 13.1974C70.772 12.5916 70.7854 11.9858 70.7854 11.3935Z" fill="#ABAFC7"/>
</svg>
