<svg width="126" height="36" viewBox="0 0 126 36" fill="none" xmlns="http://www.w3.org/2000/svg">
<path fill-rule="evenodd" clip-rule="evenodd" d="M121.052 26.5849C118.929 26.5849 117.054 28.1817 117.054 30.5438C117.054 32.9012 118.929 34.4996 121.052 34.4996C123.183 34.4996 125.055 32.9012 125.055 30.5438C125.055 28.1817 123.182 26.5849 121.052 26.5849ZM121.055 27.2227C122.928 27.2227 124.288 28.6266 124.288 30.5438C124.288 32.4556 122.928 33.8595 121.055 33.8595C119.186 33.8595 117.824 32.4579 117.824 30.5438C117.824 28.6266 119.186 27.2227 121.055 27.2227ZM120.206 32.8833V30.7141L120.21 30.7157V30.7133H120.89C121.355 30.7133 121.571 30.8611 121.694 31.2663C121.758 31.4976 121.791 31.7483 121.824 31.9947C121.866 32.3162 121.907 32.6304 122.016 32.8849H122.845C122.713 32.7345 122.632 32.1612 122.572 31.732C122.562 31.6639 122.553 31.5995 122.544 31.5409C122.461 30.8806 122.312 30.5197 121.908 30.4551V30.4349C122.374 30.3735 122.735 29.9496 122.735 29.4145C122.735 28.5457 122.267 28.1 121.247 28.1H119.505V32.8833H120.206ZM121.075 30.0958C121.755 30.0958 121.95 29.7333 121.95 29.4137C121.95 29.0357 121.755 28.737 121.075 28.737H120.206V30.0973H121.075V30.0958Z" fill="#ABAFC7"/>
<path fill-rule="evenodd" clip-rule="evenodd" d="M65.9395 0.541809V33.8097H84.4023H94.0172L98.5867 28.6398L103.197 33.8097H113.153L103.673 23.2078L113.023 12.6915H103.455L98.974 17.8217L94.3175 12.6915H84.4023H73.76V7.95714H84.4023V0.541809H65.9395ZM84.4023 12.6915L93.7995 23.2521L84.4023 33.8097V26.3757H73.76V19.8268H84.4023V12.6915Z" fill="#ABAFC7"/>
<path fill-rule="evenodd" clip-rule="evenodd" d="M58.1474 0.543335V14.1568H58.0611C56.3368 12.175 54.1815 11.4843 51.6825 11.4843C46.5616 11.4843 42.7039 14.968 41.3498 19.5701C39.8051 14.4982 35.8221 11.3894 29.9172 11.3894C25.1206 11.3894 21.3344 13.5416 19.3565 17.0493V12.6907H9.44376V7.95789H20.2626V0.543335H0.607422V33.8097H9.44376V19.8268H18.2513C17.98 20.902 17.8444 22.007 17.8476 23.116C17.8476 30.0522 23.1482 34.9266 29.9156 34.9266C35.6043 34.9266 39.3563 32.2533 41.3389 27.3868H33.7656C32.7421 28.8513 31.9643 29.2838 29.9164 29.2838C27.5426 29.2838 25.494 27.2118 25.494 24.7587H40.9142C41.5831 30.2692 45.8764 35.0207 51.7689 35.0207C54.3106 35.0207 56.6378 33.7708 58.0603 31.6591H58.1459V33.8143H65.9369V0.543335H58.1474ZM25.7398 19.9263C26.2321 17.8123 27.8709 16.431 29.9164 16.431C32.1689 16.431 33.7244 17.7696 34.1328 19.9263H25.7398ZM48.7643 23.2786C48.7643 26.0723 50.5485 28.7471 53.4193 28.7471C56.5631 28.7471 57.9211 26.1081 57.9211 23.2786C57.9211 20.2934 56.6385 17.4227 53.4193 17.4227C50.3168 17.4227 48.7643 20.2919 48.7643 23.2786Z" fill="#ABAFC7"/>
</svg>
