<svg width="190" height="36" viewBox="0 0 190 36" fill="none" xmlns="http://www.w3.org/2000/svg">
<path fill-rule="evenodd" clip-rule="evenodd" d="M14.0126 26.4842C23.4749 26.4842 29.4576 21.6093 29.4576 13.1171C29.4571 3.78578 23.0568 0.444702 12.6212 0.444702C8.58528 0.444702 3.71508 0.722337 0.237305 1.13997V34.4231H10.3939V26.4842H14.0126ZM19.441 13.2547C19.441 17.5725 17.3528 20.4969 12.0645 20.4969H10.3935V6.74565C10.9875 6.71207 11.5423 6.71207 12.0645 6.71207C17.0718 6.71159 19.441 9.07835 19.441 13.2547ZM142.72 20.4969C148.01 20.4969 150.095 17.5725 150.095 13.2547C150.095 9.07835 147.728 6.71159 142.72 6.71207C142.2 6.71207 141.644 6.71207 141.055 6.74565V20.4969H142.72ZM144.673 26.4842C154.128 26.4842 160.114 21.6093 160.114 13.1171C160.114 3.78578 153.715 0.444702 143.278 0.444702C139.243 0.444702 134.37 0.722337 130.892 1.13997V34.4231H141.054V26.4842H144.673ZM178.061 6.98781C175.142 6.98781 173.331 7.8245 173.331 9.63409C173.331 11.7936 175.996 12.7244 179.151 13.8264C183.728 15.4249 189.336 17.3836 189.336 23.9756C189.336 32.3321 182.377 35.1179 173.892 35.1179C170.551 35.1179 166.377 34.5626 163.318 33.4488L162.202 25.7875C165.263 27.3186 170.415 28.4319 173.749 28.4319C177.508 28.4319 179.041 27.3186 179.041 25.2318C179.041 23.0309 176.435 22.1104 173.336 21.0156C168.787 19.4091 163.176 17.427 163.176 10.4722C163.176 3.68362 168.74 0.444702 176.95 0.444702C181.262 0.444702 183.628 0.862337 186.273 1.4195L187.107 8.66308C184.744 7.6845 181.262 6.98781 178.061 6.98781ZM123.242 1.13997H113.085V34.4231H123.242V1.13997ZM71.8965 1.13997H82.0541V34.4231H71.8965V1.13997ZM99.7253 27.7367V1.13997H89.5677V34.4231H107.937L109.466 27.7367H99.7253ZM54.2258 1.13997H64.3833L64.3828 34.4231H54.2253V21.3317H43.6501V34.4231H33.4911V1.13997H43.6505V14.369H54.2258V1.13997Z" fill="#ABAFC7"/>
</svg>
