<svg width="161" height="35" viewBox="0 0 161 35" fill="none" xmlns="http://www.w3.org/2000/svg">
<path fill-rule="evenodd" clip-rule="evenodd" d="M32.7674 34.7507H22.9512V17.0057H32.7674V34.7507ZM158.108 34.7507H148.291V17.0057H158.108V34.7507Z" fill="#ABAFC7"/>
<path fill-rule="evenodd" clip-rule="evenodd" d="M0.316406 0.812679H153.728C156.002 0.775385 158.12 1.96723 159.267 3.93061C160.415 5.89399 160.415 8.32374 159.267 10.287C158.119 12.2502 156.001 13.4417 153.727 13.4041L17.3059 13.4007V34.6705H0.316406V0.812679ZM17.3068 9.11109H134.883C135.608 9.12607 136.285 8.74775 136.652 8.12209C137.019 7.49643 137.019 6.72124 136.652 6.09558C136.285 5.46993 135.608 5.09161 134.883 5.10658L17.3068 5.09548V9.11109Z" fill="#ABAFC7"/>
<path fill-rule="evenodd" clip-rule="evenodd" d="M63.5337 28.3816C65.539 27.4733 66.8075 25.4535 66.8075 23.1094C66.8075 19.915 64.2952 17.0057 60.0158 17.0057H39.8174V34.7507H49.6336V29.0252H52.8434L55.8004 34.7507H66.8118L63.5337 28.3816ZM55.2345 24.7271H49.6336V20.971L55.2345 20.9898C56.2665 20.9898 57.1031 21.8264 57.1031 22.8584C57.1031 23.8905 56.2665 24.7271 55.2345 24.7271ZM94.6154 34.7507H72.9684V17.0057H94.6154V21.2851H82.7837V23.8965H94.6154V28.175H82.7837V30.7863H94.6154V34.7507ZM111.123 17.0057H101.306V34.7507H121.065V30.7863H111.123V17.0057ZM124.443 17.0057H134.258V30.7863H144.201V34.7507H124.443V17.0057Z" fill="#ABAFC7"/>
</svg>
