<svg width="98" height="98" viewBox="0 0 98 98" fill="none" xmlns="http://www.w3.org/2000/svg">
<circle cx="49" cy="48.6807" r="48.5" fill="#FF6800"/>
<rect width="40" height="40" transform="translate(29 29.1807)" fill="#FF6800"/>
<path d="M38.9997 64.1808H33.9997C33.5576 64.1808 33.1337 64.0052 32.8212 63.6927C32.5086 63.3801 32.333 62.9562 32.333 62.5142V49.1808C32.333 48.7388 32.5086 48.3149 32.8212 48.0023C33.1337 47.6898 33.5576 47.5142 33.9997 47.5142H38.9997C39.4417 47.5142 39.8656 47.6898 40.1782 48.0023C40.4907 48.3149 40.6663 48.7388 40.6663 49.1808V62.5142C40.6663 62.9562 40.4907 63.3801 40.1782 63.6927C39.8656 64.0052 39.4417 64.1808 38.9997 64.1808ZM50.6663 64.1808H45.6663C45.2243 64.1808 44.8004 64.0052 44.4878 63.6927C44.1753 63.3801 43.9997 62.9562 43.9997 62.5142V34.1808C43.9997 33.7388 44.1753 33.3149 44.4878 33.0023C44.8004 32.6898 45.2243 32.5142 45.6663 32.5142H50.6663C51.1084 32.5142 51.5323 32.6898 51.8449 33.0023C52.1574 33.3149 52.333 33.7388 52.333 34.1808V62.5142C52.333 62.9562 52.1574 63.3801 51.8449 63.6927C51.5323 64.0052 51.1084 64.1808 50.6663 64.1808ZM62.333 64.1808H57.333C56.891 64.1808 56.4671 64.0052 56.1545 63.6927C55.8419 63.3801 55.6663 62.9562 55.6663 62.5142V44.1808C55.6663 43.7388 55.8419 43.3149 56.1545 43.0023C56.4671 42.6898 56.891 42.5142 57.333 42.5142H62.333C62.775 42.5142 63.199 42.6898 63.5115 43.0023C63.8241 43.3149 63.9997 43.7388 63.9997 44.1808V62.5142C63.9997 62.9562 63.8241 63.3801 63.5115 63.6927C63.199 64.0052 62.775 64.1808 62.333 64.1808Z" fill="white"/>
</svg>
