<svg width="98" height="98" viewBox="0 0 98 98" fill="none" xmlns="http://www.w3.org/2000/svg">
<circle cx="49" cy="48.6807" r="48.5" fill="#007BFF"/>
<rect width="40" height="40" transform="translate(28.5 29.1807)" fill="#007BFF"/>
<path d="M63.4997 40.8473H53.4997C53.0576 40.8473 52.6337 41.0229 52.3212 41.3355C52.0086 41.648 51.833 42.072 51.833 42.514V47.514H48.4997V35.8473C48.4997 35.4053 48.3241 34.9814 48.0115 34.6688C47.699 34.3563 47.275 34.1807 46.833 34.1807H33.4997C33.0576 34.1807 32.6337 34.3563 32.3212 34.6688C32.0086 34.9814 31.833 35.4053 31.833 35.8473V62.514C31.833 62.956 32.0086 63.3799 32.3212 63.6925C32.6337 64.0051 33.0576 64.1807 33.4997 64.1807H63.4997C63.9417 64.1807 64.3656 64.0051 64.6782 63.6925C64.9907 63.3799 65.1663 62.956 65.1663 62.514V42.514C65.1663 42.072 64.9907 41.648 64.6782 41.3355C64.3656 41.0229 63.9417 40.8473 63.4997 40.8473ZM41.833 39.1807H45.1663V42.514H41.833V39.1807ZM38.4997 55.8473H35.1663V52.514H38.4997V55.8473ZM38.4997 49.1807H35.1663V45.8473H38.4997V49.1807ZM38.4997 42.514H35.1663V39.1807H38.4997V42.514ZM45.1663 55.8473H41.833V52.514H45.1663V55.8473ZM45.1663 49.1807H41.833V45.8473H45.1663V49.1807ZM60.1663 55.8473H56.833V52.514H60.1663V55.8473ZM60.1663 49.1807H56.833V45.8473H60.1663V49.1807Z" fill="white"/>
</svg>
