<svg width="593" height="509" viewBox="0 0 593 509" fill="none" xmlns="http://www.w3.org/2000/svg">
<path d="M5 509H381L433 430L436.5 415L450 388L457.5 381.5L466 377L503.5 372L514.5 367L557 344.5H567L569.5 341L567 335.5L593 320.5L590.5 312.5L582 310.5L541.5 328L536 330.5L529.5 325.5H518L503.5 330.5H492L484.5 328H471.5L457.5 330.5L445 339L430.5 354.5L410.5 381.5L404 388L379 415L375 408L377 344.5L358.5 293V282L356 271L350 258.5L341.5 250.5L312.5 232L267 212.5L264 208.5L261.5 169L277 124V91L271.5 55.5L264 33L247.5 13.5L216.5 0H181.5L154 13.5L133 36L126 69V129L133 157L141.5 177.5H138.5L135.5 204.5L138.5 208.5L133 217L116.5 226.5L97.5 231.5L71 248L46 267L41 278.5L36 308L26 333.5L22.5 361.5L13.5 395.5L0.5 465.5L5 509Z" fill="#E5EAF1"/>
</svg>
