<svg width="117" height="36" viewBox="0 0 117 36" fill="none" xmlns="http://www.w3.org/2000/svg">
<path d="M72.654 27.712C65.9355 32.6797 56.163 35.3264 47.7343 35.3264C35.9259 35.3264 25.3391 30.9695 17.2768 23.7216C16.6661 23.1515 17.1954 22.3779 17.9691 22.8258C26.6421 27.8749 37.3511 30.8881 48.4265 30.8881C55.878 30.8881 64.1031 29.3407 71.6768 26.124C72.8169 25.6761 73.7534 26.8976 72.654 27.712Z" fill="#ABAFC7"/>
<path d="M75.4644 24.4952C74.6093 23.3958 69.7638 23.9659 67.6057 24.2509C66.9542 24.3324 66.8321 23.7623 67.4428 23.3551C71.3111 20.627 77.6225 21.4414 78.3554 22.3372C79.0883 23.233 78.1518 29.5851 74.5279 32.5982C73.9578 33.0461 73.4285 32.8018 73.6728 32.191C74.4871 30.1551 76.3195 25.6354 75.4644 24.4952Z" fill="#ABAFC7"/>
<path fill-rule="evenodd" clip-rule="evenodd" d="M24.6878 20.627H21.1046C20.7789 20.5863 20.4938 20.342 20.4531 20.0162V1.61148C20.4531 1.24501 20.7789 0.95998 21.1453 0.95998H24.4843C24.8507 0.95998 25.095 1.24501 25.1358 1.57076V3.97315H25.2172C26.0723 1.6522 27.7417 0.552795 29.9405 0.552795C32.1801 0.552795 33.6052 1.6522 34.5824 3.97315C35.4375 1.6522 37.4327 0.552795 39.5501 0.552795C41.0567 0.552795 42.6854 1.16357 43.7034 2.58872C44.6738 3.90571 44.6413 5.72419 44.6101 7.46666C44.6046 7.77138 44.5992 8.07377 44.5992 8.37075V20.0162C44.5992 20.3827 44.2735 20.6677 43.907 20.6677H40.3645C39.998 20.627 39.713 20.342 39.713 20.0162V10.2438C39.713 10.0773 39.7168 9.85603 39.721 9.60403C39.7367 8.68533 39.7594 7.35789 39.6315 6.78273C39.3465 5.56117 38.5729 5.19471 37.5142 5.19471C36.6591 5.19471 35.7226 5.76476 35.3561 6.70129C35.0219 7.55534 35.0263 8.91734 35.0297 9.95349C35.03 10.0535 35.0304 10.1506 35.0304 10.2438V20.0162C35.0304 20.3827 34.7046 20.6677 34.3381 20.6677H30.7549C30.3884 20.627 30.1034 20.342 30.1034 20.0162V10.2438C30.1034 10.0409 30.1066 9.82799 30.11 9.60895C30.14 7.62963 30.1776 5.15399 27.9046 5.15399C25.4152 5.15399 25.4183 7.91483 25.4206 10.0503L25.4208 10.2438V20.0162C25.3801 20.342 25.095 20.627 24.6878 20.627ZM67.7273 4.21746V1.57076C67.7273 1.16357 68.0123 0.919262 68.3788 0.919262H80.1872C80.5536 0.919262 80.8794 1.20429 80.8794 1.57076V3.81028C80.8794 4.17674 80.5536 4.66536 79.9836 5.47973L73.8758 14.1935C76.156 14.1528 78.5584 14.4785 80.5944 15.6186C81.0423 15.863 81.1644 16.2701 81.2051 16.6366V19.4462C81.2051 19.8534 80.798 20.3013 80.3501 20.057C76.7261 18.1432 71.8806 17.9396 67.8902 20.0977C67.483 20.3013 67.0351 19.8941 67.0351 19.4869V16.7995C67.0351 16.3923 67.0351 15.6594 67.483 15.0079L74.568 4.86896H68.4195C68.0531 4.86896 67.7273 4.58393 67.7273 4.21746ZM99.2841 10.936C99.2841 5.11327 96.3931 0.552795 91.059 0.552795C85.847 0.552795 82.956 5.03183 82.9967 10.7731C82.9967 16.4737 85.847 21.0342 91.059 21.0342C96.1081 21.0342 99.2841 16.5552 99.2841 10.936ZM91.059 4.33962C88.4123 4.33962 88.2494 7.96356 88.2494 10.2031L88.2494 10.2977C88.2489 12.575 88.2477 17.2474 91.0183 17.2474C93.7872 17.2474 93.95 13.3791 93.95 11.0175C93.95 9.47015 93.8686 7.5971 93.4207 6.13123C93.0135 4.82824 92.1991 4.33962 91.059 4.33962ZM102.582 20.627H106.166C106.532 20.627 106.858 20.342 106.899 19.9755V10.0402C106.899 8.77793 106.98 7.67853 107.469 6.53842C107.876 5.64261 108.69 5.07255 109.545 5.07255C111.829 5.07255 111.806 7.55209 111.788 9.5341C111.786 9.70726 111.785 9.87663 111.785 10.0402V20.057C111.825 20.342 112.11 20.5863 112.436 20.627H116.019C116.386 20.627 116.671 20.3827 116.712 20.057V8.45219C116.712 6.66057 116.712 4.17674 115.775 2.71088C114.757 1.12285 113.169 0.552795 111.581 0.552795C109.097 0.552795 107.713 1.73363 106.695 4.25818H106.613V1.4486C106.532 1.16357 106.288 0.919262 105.962 0.919262H102.623C102.257 0.919262 101.972 1.20429 101.931 1.53004V19.9755C101.931 20.3013 102.216 20.5863 102.582 20.627Z" fill="#ABAFC7"/>
<path fill-rule="evenodd" clip-rule="evenodd" d="M61.09 20.6677C61.3751 20.8306 61.7008 20.7899 61.9451 20.5863C62.2053 20.3695 62.5373 20.086 62.8919 19.7831C63.5364 19.2328 64.2557 18.6186 64.7547 18.2246C65.0397 18.021 64.999 17.6138 64.7547 17.2881C64.6762 17.1752 64.5971 17.0653 64.5186 16.9563C63.9464 16.1613 63.411 15.4174 63.411 13.9492V8.37072C63.411 8.18428 63.412 7.99885 63.413 7.81464C63.4248 5.66543 63.4356 3.68167 61.823 2.18151C60.4385 0.837796 58.1583 0.389893 56.4074 0.389893C52.9871 0.389893 49.2002 1.65217 48.3859 5.88689C48.3044 6.33479 48.6302 6.53839 48.9152 6.61982L52.3763 6.98629C52.702 6.98629 52.9056 6.66054 52.9871 6.33479C53.2721 4.86893 54.4936 4.17671 55.8781 4.17671C56.611 4.17671 57.4254 4.46174 57.8733 5.11324C58.3413 5.76121 58.3319 6.63197 58.3234 7.416C58.3223 7.5188 58.3212 7.62011 58.3212 7.71922V8.16713C57.9833 8.20687 57.6283 8.24446 57.2621 8.28323C55.3774 8.48275 53.1984 8.71342 51.5619 9.4294C49.3224 10.4066 47.7344 12.3611 47.7344 15.2929C47.7344 18.9982 50.096 20.8713 53.1092 20.8713C55.6338 20.8713 57.0589 20.2605 59.0134 18.2653C59.1081 18.4014 59.1941 18.528 59.2757 18.648C59.7557 19.3541 60.0808 19.8324 61.09 20.6677ZM58.3214 12.0503C58.3213 11.978 58.3212 11.9052 58.3212 11.8318V11.0581C55.7152 11.0581 52.9871 11.6282 52.9871 14.6821C52.9871 16.2294 53.8014 17.2881 55.1859 17.2881C56.2038 17.2881 57.0996 16.6773 57.6697 15.6593C58.3252 14.464 58.3234 13.3417 58.3214 12.0503Z" fill="#ABAFC7"/>
<path fill-rule="evenodd" clip-rule="evenodd" d="M14.0197 20.6677C14.3048 20.8306 14.6305 20.7899 14.8748 20.5863C15.135 20.3695 15.467 20.086 15.8216 19.7831C16.4661 19.2328 17.1854 18.6186 17.6844 18.2246C17.9694 18.021 17.9287 17.6138 17.6844 17.2881C17.6059 17.1752 17.5268 17.0653 17.4483 16.9563C16.8761 16.1613 16.3407 15.4174 16.3407 13.9492V8.37072C16.3407 8.18428 16.3417 7.99885 16.3427 7.81464C16.3545 5.66543 16.3653 3.68167 14.7527 2.18151C13.3682 0.837796 11.088 0.389893 9.3371 0.389893C5.91675 0.389893 2.12993 1.65217 1.31556 5.88689C1.23412 6.33479 1.55987 6.53839 1.8449 6.61982L5.30597 6.98629C5.63172 6.98629 5.83531 6.66054 5.91675 6.33479C6.20178 4.86893 7.42334 4.17671 8.80776 4.17671C9.5407 4.17671 10.3551 4.46174 10.803 5.11324C11.271 5.76121 11.2615 6.63197 11.2531 7.416C11.252 7.5188 11.2509 7.62011 11.2509 7.71922V8.16713C10.913 8.20687 10.5579 8.24446 10.1918 8.28323C8.30704 8.48275 6.12812 8.71342 4.4916 9.4294C2.25208 10.4066 0.664062 12.3611 0.664062 15.2929C0.664062 18.9982 3.02574 20.8713 6.03891 20.8713C8.56345 20.8713 9.9886 20.2605 11.9431 18.2653C12.0377 18.4014 12.1238 18.528 12.2054 18.648C12.6853 19.3541 13.0105 19.8324 14.0197 20.6677ZM11.2918 12.0503C11.2917 11.978 11.2916 11.9052 11.2916 11.8318V11.0581C8.68561 11.0581 5.95747 11.6282 5.95747 14.6821C5.95747 16.2294 6.77184 17.2881 8.15627 17.2881C9.17423 17.2881 10.07 16.6773 10.6401 15.6593C11.2956 14.464 11.2939 13.3417 11.2918 12.0503Z" fill="#ABAFC7"/>
</svg>
