<svg width="166" height="36" viewBox="0 0 166 36" fill="none" xmlns="http://www.w3.org/2000/svg">
<path d="M34.1072 21.9492C31.8058 31.1816 22.4565 36.7978 13.2241 34.4964C3.99644 32.195 -1.62133 22.8452 0.681135 13.6149C2.98144 4.3824 12.3302 -1.23537 21.5594 1.06601C30.7908 3.3674 36.4081 12.7183 34.1067 21.9492H34.1072Z" fill="#ABAFC7"/>
<path fill-rule="evenodd" clip-rule="evenodd" d="M24.9907 15.3266C25.3337 13.0339 23.588 11.8013 21.201 10.9791L21.9753 7.87326L20.0847 7.4021L19.3309 10.4261C18.8273 10.3024 18.3226 10.1836 17.8167 10.0696L18.576 7.02572L16.686 6.55457L15.9117 9.65933C15.5003 9.56564 15.0964 9.47303 14.7044 9.37557L14.7066 9.36587L12.0993 8.71487L11.5964 10.7341C11.5964 10.7341 12.9991 11.0556 12.9695 11.0755C13.7352 11.2666 13.8736 11.7733 13.8504 12.175L12.9684 15.7133C13.0212 15.7267 13.0896 15.7466 13.165 15.7763L12.9652 15.7267L11.7289 20.6833C11.6352 20.9159 11.3977 21.2648 10.862 21.1323C10.8813 21.1598 9.48834 20.7893 9.48834 20.7893L8.5498 22.954L11.01 23.5678C11.2921 23.6381 11.5706 23.7107 11.8462 23.7825C12.0178 23.8273 12.1883 23.8717 12.3578 23.9151L11.5754 27.0565L13.4638 27.5276L14.2381 24.4191C14.754 24.5596 15.2547 24.6883 15.7447 24.8106L14.9726 27.904L16.8626 28.3752L17.6455 25.2397C20.8693 25.8498 23.2934 25.6037 24.3138 22.6885C25.136 20.3408 24.2729 18.9866 22.5767 18.103C23.812 17.8176 24.7424 17.005 24.9907 15.3266ZM20.6706 21.3833C20.1343 23.5383 16.7596 22.6462 15.2181 22.2387C15.0803 22.2023 14.9571 22.1697 14.852 22.1436L15.8901 17.9818C16.0193 18.0141 16.1773 18.0496 16.3563 18.0898C17.9525 18.4483 21.2196 19.1822 20.6706 21.3833ZM16.6752 16.1585C17.9614 16.5017 20.7667 17.2504 21.2553 15.2933V15.2927C21.7544 13.2903 19.0277 12.6867 17.6961 12.392C17.5463 12.3588 17.4142 12.3295 17.3063 12.3026L16.365 16.0773C16.454 16.0994 16.5583 16.1273 16.6752 16.1585Z" fill="white"/>
<path fill-rule="evenodd" clip-rule="evenodd" d="M50.6594 10.9758C52.0567 10.9758 53.2639 11.2262 54.2779 11.7178C55.2977 12.2143 56.1388 12.8831 56.8135 13.7241C57.479 14.5695 57.9744 15.5576 58.2943 16.69C58.6119 17.8261 58.7713 19.0463 58.7713 20.3526C58.7713 22.3611 58.4036 24.2565 57.661 26.0441C56.9179 27.8345 55.911 29.388 54.6295 30.7126C53.349 32.0356 51.837 33.0781 50.0935 33.8486C48.3526 34.6197 46.4599 35.0052 44.4278 35.0052C44.165 35.0052 43.703 34.9977 43.0504 34.9842C42.3978 34.9708 41.6477 34.9035 40.8077 34.7904C39.9048 34.6614 39.0092 34.4857 38.1246 34.2638C37.1987 34.0402 36.2993 33.7189 35.4414 33.3053L42.9863 1.60176L49.744 0.554993L47.0426 11.8051C47.6044 11.5512 48.1874 11.3472 48.785 11.1955C49.3984 11.0464 50.0276 10.9727 50.6589 10.9758H50.6594ZM44.991 29.6443C46.0087 29.6443 46.9672 29.3939 47.8686 28.9028C48.7746 28.4075 49.5697 27.7321 50.2049 26.9181C50.8688 26.0693 51.3912 25.1189 51.7519 24.1035C52.1302 23.054 52.3223 21.9464 52.3195 20.8308C52.3195 19.4351 52.0863 18.3485 51.6216 17.5607C51.1569 16.7772 50.297 16.3831 49.0478 16.3831C48.6386 16.3831 48.1119 16.4611 47.4583 16.6006C46.8024 16.7487 46.2155 17.0561 45.6894 17.5187L42.8124 29.4661C42.9858 29.4968 43.1393 29.5258 43.2701 29.5533C43.3983 29.5829 43.5393 29.6039 43.6809 29.6185C43.8301 29.6351 44.0008 29.6438 44.207 29.6438L44.9905 29.6443H44.991ZM59.3249 34.3989H65.7794L71.2744 11.4621H64.7757L59.3249 34.3989ZM68.9203 8.66745C68.0397 8.67476 67.1812 8.39164 66.4778 7.86192C65.7471 7.32776 65.3847 6.50553 65.3847 5.39738C65.3847 4.78784 65.5086 4.21599 65.7546 3.67645C65.9924 3.1538 66.3259 2.68024 66.7379 2.28022C67.1507 1.88614 67.6302 1.56837 68.154 1.34168C68.6992 1.10872 69.2864 0.990317 69.8793 0.993839C70.7796 0.993839 71.5916 1.26199 72.3196 1.79938C73.0443 2.33945 73.4089 3.16168 73.4089 4.26392C73.4124 4.85887 73.2856 5.44738 73.0373 5.98807C72.8018 6.51123 72.4693 6.985 72.0573 7.3843C71.6454 7.7789 71.1657 8.09593 70.6412 8.32015C70.1016 8.55599 69.5298 8.66745 68.9203 8.66745ZM83.6913 4.70007L76.9309 5.74738L72.6556 23.7998C72.3072 25.2822 72.1047 26.6908 72.0455 28.0305C71.9879 29.3675 72.1941 30.5538 72.6556 31.5822C73.1235 32.615 73.9053 33.4313 75.0113 34.0279C76.1189 34.6202 77.6735 34.918 79.6787 34.918C81.0733 34.918 82.28 34.8055 83.2993 34.5707C84.2607 34.3556 85.2075 34.0796 86.1338 33.7441L85.6513 28.7715C85.0048 29.0002 84.3425 29.1819 83.6698 29.3153C83.015 29.4467 82.336 29.5129 81.6398 29.5129C80.7944 29.5129 80.1499 29.395 79.6992 29.1608C79.2469 28.9308 78.9356 28.6051 78.7623 28.1824C78.5878 27.7608 78.5135 27.26 78.5458 26.6768C78.5738 26.0958 78.6739 25.4712 78.8506 24.803L80.7675 16.7799H87.964L89.2714 11.461H82.0313L83.6913 4.70007ZM88.9876 25.2402C88.9876 23.2641 89.3075 21.4015 89.9461 19.6569C90.5842 17.9112 91.5033 16.3847 92.6955 15.0751C93.8839 13.7721 95.3318 12.7388 97.0366 11.9806C98.7316 11.2268 100.631 10.8466 102.724 10.8466C104.034 10.8466 105.204 10.9705 106.235 11.2187C107.268 11.4691 108.203 11.7927 109.049 12.1987L106.824 17.2602C106.23 17.0218 105.627 16.8109 105.014 16.6281C104.389 16.4358 103.627 16.3432 102.725 16.3432C100.57 16.3432 98.8679 17.0863 97.6003 18.566C96.3371 20.0473 95.7012 22.0412 95.7012 24.5429C95.7012 26.0253 96.0216 27.2234 96.6634 28.1404C97.302 29.0574 98.4818 29.514 100.195 29.514C101.039 29.514 101.856 29.4257 102.637 29.2534C103.424 29.0789 104.119 28.8592 104.732 28.5997L105.214 33.7883C104.331 34.127 103.428 34.4119 102.511 34.6412C101.52 34.8835 100.342 35.0085 98.9761 35.0085C97.1733 35.0085 95.6463 34.7451 94.3981 34.225C93.1489 33.6978 92.1166 32.9973 91.303 32.1099C90.4856 31.2204 89.8993 30.1811 89.5363 28.9895C89.1734 27.7979 88.9871 26.5449 88.9871 25.2402H88.9876ZM113.646 34.3074C114.782 34.7721 116.12 35.0068 117.661 35.0068C119.783 35.0068 121.653 34.5626 123.264 33.6758C124.879 32.7895 126.223 31.649 127.298 30.2544C128.374 28.8576 129.19 27.2853 129.74 25.5461C130.289 23.7993 130.565 22.0515 130.565 20.3101C130.565 18.916 130.378 17.6415 129.998 16.4961C129.622 15.3455 129.061 14.3531 128.323 13.5077C127.578 12.6666 126.634 12.0091 125.489 11.5455C124.338 11.0808 123.007 10.8455 121.495 10.8455C119.433 10.8455 117.598 11.2903 116.003 12.1745C114.407 13.0645 113.05 14.2061 111.95 15.6023C110.843 16.9964 110.005 18.5655 109.441 20.3101C108.873 22.0531 108.593 23.7998 108.593 25.5466C108.593 26.9396 108.776 28.2109 109.157 29.3589C109.537 30.5075 110.093 31.5041 110.836 32.3452C111.578 33.1906 112.515 33.8432 113.646 34.3074ZM120.886 16.3438C119.929 16.3438 119.083 16.6211 118.359 17.1698C117.632 17.7249 117.022 18.4233 116.53 19.2644C116.032 20.1098 115.664 21.0316 115.415 22.0337C115.167 23.0379 115.046 23.9883 115.046 24.8891C115.046 26.3446 115.281 27.4791 115.742 28.2944C116.21 29.1053 117.051 29.514 118.272 29.514C119.232 29.514 120.074 29.2378 120.802 28.6837C121.525 28.1328 122.136 27.4345 122.632 26.5907C123.126 25.7507 123.498 24.8256 123.747 23.8214C123.991 22.8204 124.116 21.8657 124.116 20.9654C124.116 19.5137 123.882 18.3775 123.416 17.5628C122.952 16.7514 122.107 16.3432 120.886 16.3432V16.3438ZM131.14 34.3989H137.599L143.092 11.4621H136.591L131.14 34.3989ZM140.735 8.66745C139.856 8.67489 138.998 8.39173 138.296 7.86192C137.568 7.32776 137.203 6.50553 137.203 5.39738C137.203 4.78784 137.329 4.21599 137.574 3.67645C137.81 3.15318 138.144 2.67941 138.556 2.28022C138.97 1.88599 139.45 1.56822 139.974 1.34168C140.517 1.10867 141.102 0.990253 141.693 0.993839C142.596 0.993839 143.411 1.26199 144.137 1.79938C144.864 2.33945 145.23 3.16168 145.23 4.26392C145.23 4.87561 145.1 5.44961 144.856 5.98807C144.612 6.52653 144.284 6.99015 143.878 7.3843C143.465 7.77797 142.986 8.09488 142.462 8.32015C141.921 8.55599 141.349 8.66745 140.735 8.66745ZM149.376 12.0021C148.781 12.1895 148.234 12.3618 147.744 12.5051L142.465 34.3951H148.965L153.195 16.6485C154.042 16.4758 154.903 16.387 155.767 16.3836C156.639 16.3836 157.283 16.5511 157.709 16.8844C158.123 17.2127 158.408 17.6767 158.513 18.1945C158.633 18.7345 158.639 19.3597 158.536 20.0683C158.434 20.7834 158.296 21.5157 158.121 22.2722L155.243 34.3968H161.74L164.709 22.0121C165.549 18.5827 165.325 15.878 164.031 13.9013C162.735 11.9246 160.389 10.9333 156.985 10.9333C155.827 10.9333 154.784 10.9839 153.87 11.0878C152.955 11.1896 152.123 11.3215 151.386 11.4831C150.708 11.6238 150.037 11.7971 149.376 12.0021Z" fill="#ABAFC7"/>
</svg>
