<svg width="122" height="36" viewBox="0 0 122 36" fill="none" xmlns="http://www.w3.org/2000/svg">
<path fill-rule="evenodd" clip-rule="evenodd" d="M5.09483 6.88538H0.886719V29.8348H5.09483V20.2892H13.97V29.8348H18.1835V6.88538H13.97V16.2346H5.09483V6.88538ZM28.0289 25.8443C29.9496 25.8443 31.5148 24.281 31.5148 22.3598V12.4793H35.5041V22.3598C35.5041 26.4819 32.1503 29.8348 28.0289 29.8348C23.9066 29.8348 20.5525 26.4819 20.5525 22.3598V12.4793H24.5433V22.3598C24.5433 24.281 26.1076 25.8443 28.0289 25.8443ZM46.6448 12.595C44.6652 12.595 43.2834 13.1695 41.949 14.4794V6.88538H37.9453V20.9592C37.9453 26.2271 41.7541 29.8348 46.0331 29.8348C50.7902 29.8348 54.9583 26.1627 54.9583 21.2152C54.9583 16.3303 51.1148 12.595 46.6448 12.595ZM41.9568 21.2152C41.9568 23.8651 44.0314 26.1309 46.7443 26.1309C49.0431 26.1309 51.1188 23.8651 51.1188 21.2152C51.1188 18.5647 49.0431 16.2982 46.7443 16.2982C44.0314 16.2982 41.9568 18.5647 41.9568 21.2152ZM61.6827 13.6037C61.6827 11.5911 63.0237 10.953 64.4918 10.953C65.6737 10.953 67.2377 11.8469 68.2584 12.9326L70.8756 9.86797C69.5676 8.11231 66.9183 6.89881 64.7473 6.89881C60.4051 6.89881 57.2764 9.42104 57.2764 13.6037C57.2764 18.0411 60.3998 19.1357 63.0734 20.0726C65.0738 20.7737 66.8224 21.3865 66.8224 23.2452C66.8224 24.5846 65.5139 25.7669 64.0142 25.7669C61.8674 25.7669 61.0382 24.8185 60.091 23.7351C59.9954 23.6259 59.8987 23.5152 59.7993 23.4041L56.8936 26.4046C58.7463 28.6715 61.0441 29.8214 63.7901 29.8214C67.9081 29.8214 71.2285 27.2673 71.2285 23.2761C71.2285 18.0783 67.7572 16.9902 65.0012 16.1264C63.1869 15.5578 61.6827 15.0864 61.6827 13.6037ZM73.6807 21.2449C73.6807 15.9758 77.49 12.3702 81.7686 12.3702C86.5247 12.3702 90.694 16.0413 90.694 20.9896C90.694 25.8744 86.8501 29.6092 82.3803 29.6092C80.4 29.6092 79.0189 29.0338 77.6842 27.7248V35.3549H73.6807V21.2449ZM82.48 25.9065C79.7673 25.9065 77.6925 23.6377 77.6925 20.9896C77.6925 18.3391 79.7673 16.0726 82.48 16.0726C84.7783 16.0726 86.8543 18.3391 86.8543 20.9896C86.8543 23.6377 84.7783 25.9065 82.48 25.9065ZM117.132 23.5448C117.132 25.1097 117.803 26.1309 120.164 26.1309C120.613 26.1309 121.123 26.0991 121.57 26.0682L120.58 29.7073C120.197 29.8018 119.494 29.8348 118.983 29.8348C115.568 29.8348 113.079 28.0148 113.079 24.4068V10.2958L117.132 8.4765V13.1061H120.803V16.6174H117.132V23.5448Z" fill="#ABAFC7"/>
<path fill-rule="evenodd" clip-rule="evenodd" d="M106.409 13.6454C107.759 14.4424 108.838 15.501 109.606 16.8216C110.36 18.1324 110.719 19.5632 110.719 21.1141V21.1928C110.719 22.7693 110.273 24.2022 109.462 25.4992C108.656 26.7926 107.589 27.8057 106.226 28.5466C104.932 29.2476 103.555 29.5904 102.096 29.5904H101.854C100.535 29.5904 99.3286 29.3026 98.236 28.8302C97.6821 28.5909 97.1668 28.3135 96.6897 27.9839L93.2097 31.4644C93.2918 31.726 93.3354 32.0013 93.3354 32.2835C93.3371 33.0076 93.0494 33.7024 92.5363 34.2134C92.0253 34.7272 91.3301 35.0153 90.6055 35.0134C89.8811 35.0153 89.186 34.7272 88.6754 34.2134C88.1596 33.6978 87.8756 33.0126 87.8753 32.2835C87.8729 31.5591 88.1605 30.8639 88.674 30.3529C89.4238 29.599 90.5452 29.3531 91.5418 29.724L94.9086 26.349C94.3516 25.6618 93.9018 24.9019 93.5942 24.066C93.2448 23.1087 93.0398 22.0897 93.0398 21.0103V20.6895C93.0398 19.1519 93.5346 17.7423 94.3443 16.4611C94.7438 15.8327 95.2433 15.2726 95.7796 14.7802L85.635 7.47094L84.8968 6.91086C84.3654 7.23097 83.7497 7.42568 83.0841 7.42568C81.1325 7.42568 79.5518 5.84399 79.5518 3.89339C79.5518 1.94255 81.1309 0.361328 83.0824 0.361328C85.0339 0.361328 86.6138 1.94255 86.6138 3.89339C86.6138 4.21868 86.5499 4.52701 86.4669 4.82614C89.1406 6.85455 93.2641 9.98698 95.8737 11.9694C96.6786 12.5808 97.3394 13.0828 97.7693 13.4092C98.6622 12.9576 99.64 12.6637 100.583 12.5274V8.32967C99.4043 7.82924 98.715 6.72158 98.715 5.42935C98.715 3.66804 100.152 2.24074 101.914 2.24074C103.673 2.24074 105.086 3.66804 105.086 5.42935C105.086 6.72158 104.354 7.82924 103.176 8.32967V12.5255C104.354 12.6856 105.4 13.0583 106.409 13.6454ZM102.096 25.8188C103.324 25.8188 104.409 25.1722 105.354 24.1226C106.176 23.2181 106.587 22.2217 106.587 21.1459C106.587 20.9846 106.581 20.8159 106.568 20.6511C106.485 19.8584 106.229 19.1307 105.798 18.4561C105.354 17.7817 104.781 17.269 104.081 16.8937C103.393 16.5418 102.664 16.39 101.894 16.39H101.815C100.966 16.39 100.204 16.6207 99.4898 17.0912C98.7629 17.565 98.2162 18.1609 97.8115 18.9273C97.4329 19.6283 97.2828 20.3706 97.2828 21.1534V21.3953C97.2828 22.1915 97.5468 22.9426 98.0333 23.6304C98.504 24.3312 99.0792 24.8847 99.8359 25.2727C100.507 25.6251 101.193 25.8188 101.894 25.8188H102.096Z" fill="#ABAFC7"/>
</svg>
