<svg width="155" height="36" viewBox="0 0 155 36" fill="none" xmlns="http://www.w3.org/2000/svg">
<path d="M147.879 2.96875L154.336 3.00432C154.336 3.00432 142.332 19.2695 141.352 20.5951C141.034 21.0243 140.55 21.4873 140.305 22.0611C139.685 23.5037 139.048 26.6682 139.048 26.6682L133.141 26.6977C133.141 26.6977 134.06 23.3991 134.022 21.6422C133.989 20.1074 133.206 18.5745 132.766 17.0352C132.322 15.4769 131.719 12.4278 131.719 12.4278H137.792L138.63 15.7786L147.879 2.96875" fill="#ABAFC7"/>
<path fill-rule="evenodd" clip-rule="evenodd" d="M70.5152 19.7841C71.9887 16.0546 73.5979 11.9815 73.0835 8.23977C72.761 5.89844 71.2344 3.35425 69.5588 2.28817C69.5276 2.26912 69.4485 2.20936 69.3635 2.14512L69.3632 2.1449L69.3632 2.14485L69.3631 2.14477L69.3629 2.14466C69.2612 2.06778 69.1512 1.98461 69.1046 1.95722C67.8646 1.23897 65.8795 0.633739 64.4973 0.491474C57.3711 -0.239441 53.12 2.92685 50.6762 7.19238C49.7147 8.86791 49.0784 10.6981 48.582 12.6376C48.0332 14.7858 47.6395 17.3911 47.9536 19.7575C48.1423 21.175 48.9214 23.1899 50.0481 24.3648C52.5313 26.953 57.1501 26.9212 62.2621 26.886C62.8617 26.8818 63.4681 26.8777 64.0786 26.8777C65.8608 26.8777 70.1348 26.8421 71.4245 26.8086C71.8414 26.796 73.0374 21.9291 72.9307 21.7721C72.8838 21.7167 72.561 21.722 72.0692 21.7301C71.4846 21.7397 70.6614 21.7532 69.7789 21.6735C70.0126 21.0562 70.2619 20.4252 70.5152 19.7841ZM115.437 9.93158C116.131 12.4324 114.809 18.3083 114.809 18.3083C114.809 18.3083 107.909 18.1932 104.129 18.3083C103.871 18.3162 103.602 18.3144 103.335 18.3127H103.335H103.335H103.335H103.335H103.335C102.387 18.3066 101.47 18.3006 101.197 18.7273C100.705 19.4935 101.377 20.6729 101.947 21.1711C102.523 21.6751 103.579 21.7867 104.138 21.8458C104.215 21.854 104.283 21.8612 104.339 21.8682C107.406 22.258 113.827 21.9689 113.827 21.9689L112.715 26.8939C112.715 26.8939 103.641 27.3491 99.1032 26.2658C98.2071 26.0524 97.367 25.6211 96.7995 25.0095C96.6986 24.9006 96.6064 24.7659 96.5139 24.6307C96.4644 24.5583 96.4148 24.4857 96.3637 24.417C96.2467 24.2596 95.9055 23.7427 95.7524 23.334C94.7159 20.5719 95.8739 15.2804 97.009 12.4447L97.0273 12.399L97.0274 12.3988C97.1559 12.0779 97.3142 11.683 97.4804 11.3452C97.5643 11.1748 97.6433 10.996 97.7186 10.8254L97.7187 10.8253C97.8386 10.5538 97.9493 10.3032 98.0561 10.1411C98.1196 10.0422 98.1914 9.96239 98.2632 9.88261L98.2633 9.8825C98.3236 9.81545 98.384 9.74839 98.4395 9.66996C98.5796 9.46681 98.7427 9.26999 98.8937 9.09427C99.2884 8.63648 99.7332 8.30499 100.262 7.91121L100.36 7.838C102.25 6.42198 105.672 5.32275 109.783 5.74351C111.331 5.90266 113.668 6.45544 114.809 8.04717C115.045 8.37439 115.188 8.94998 115.32 9.47856C115.36 9.63649 115.398 9.79022 115.437 9.93188V9.93158ZM137.577 11.0796C137.577 11.0796 136.846 7.11733 135.654 6.39907C134.659 5.79998 132.612 5.85863 130.52 5.91855C129.884 5.93677 129.244 5.9551 128.628 5.9551H124.539C124.192 5.9551 123.864 5.95199 123.556 5.94906L123.556 5.94906C121.59 5.93038 120.426 5.91932 120.202 6.77403C119.402 9.82729 116.013 26.6682 116.013 26.6682H121.458L125.018 11.1716H127.95C131.343 11.1716 137.577 11.0796 137.577 11.0796ZM109.731 11.7997C110.476 12.9517 110.307 13.9463 110.307 13.9463L102.192 13.8939C102.192 13.8939 102.1 10.3882 106.831 10.5368C108.506 10.5893 109.094 10.8177 109.731 11.7997ZM95.7443 5.90477L90.4648 5.93581L86.6954 21.6422C86.6954 21.6422 84.6096 21.6573 83.9728 21.6422C81.9627 21.5961 81.3029 21.5292 80.8318 20.5948C80.4462 19.8318 80.6473 18.9065 80.8641 17.9087C80.9262 17.6228 80.9897 17.3309 81.041 17.0352C81.6842 13.3284 83.2298 5.90477 83.2298 5.90477L77.7598 5.9548C77.7598 5.9548 76.7188 10.7231 76.2245 13.056C76.1254 13.523 76.0105 14.0213 75.8906 14.541C75.1645 17.6892 74.2573 21.6226 75.5963 24.155C76.9935 26.7948 80.0294 26.7448 83.5851 26.6861H83.5852H83.5853H83.5854H83.5856C84.1228 26.6772 84.6719 26.6682 85.229 26.6682H91.3024C92.8019 19.8621 95.7443 5.90477 95.7443 5.90477ZM65.7538 15.9878C65.8659 15.5897 65.9883 15.1848 66.1115 14.7775C66.5961 13.1752 67.0921 11.5353 67.0104 10.1242C66.8995 8.23133 65.3123 6.50788 64.2881 6.14559C61.2035 5.0566 58.3157 6.57901 57.1679 7.82082C55.6832 9.42913 55.1804 11.3078 54.6548 13.8942C54.2636 15.8142 53.9429 17.8411 54.6548 19.3385C55.7128 21.5605 58.6521 21.5102 62.072 21.4517C62.7265 21.4405 63.3987 21.4289 64.0786 21.433C64.6576 19.8812 65.1441 18.1532 65.63 16.4275L65.7538 15.9878ZM47.3526 5.96113C47.2127 6.59828 47.0728 7.26928 46.9317 7.94601C46.718 8.97078 46.5016 10.0087 46.2784 10.9621H40.4148C40.5951 10.2656 40.7586 9.57064 40.9187 8.89033L40.9187 8.89027L40.9187 8.89022C41.1619 7.85663 41.3972 6.85675 41.6713 5.93611C42.5875 5.93611 43.4722 5.94208 44.3777 5.94818C45.3266 5.95458 46.2984 5.96113 47.3529 5.96113H47.3526ZM45.8597 12.4281H40.2053C39.9186 13.3703 38.4023 19.7114 37.9019 22.0611C37.7899 22.5879 37.6905 23.1172 37.5926 23.6385C36.9349 27.1416 36.3456 30.2798 32.4573 29.8091C32.2592 30.5373 32.0363 31.3802 31.8065 32.2495C31.5405 33.2557 31.2651 34.2972 31.0078 35.2375C31.4994 35.2476 31.9805 35.2651 32.45 35.2822C33.7308 35.3288 34.9261 35.3723 36.0172 35.2541C36.9341 35.154 38.5906 34.758 38.9487 34.4165C39.023 34.3456 39.0856 34.3282 39.1525 34.3096C39.2158 34.292 39.283 34.2733 39.3677 34.207C41.2584 32.73 41.7636 30.7042 42.451 27.9477C42.4701 27.8708 42.4895 27.7933 42.5089 27.7153C43.6564 23.1206 45.1203 16.5201 45.8597 12.4281Z" fill="#ABAFC7"/>
<path d="M27.012 23.1082L26.8909 23.4223C24.8262 27.4431 21.1674 29.9098 15.9488 30.0186C13.5092 30.0689 11.1848 29.4429 9.66629 28.7623C6.38938 27.2899 3.633 24.5595 2.12777 21.6422C-0.03152 17.4601 -0.420939 11.6426 4.06884 7.29755C4.13816 7.29755 3.52419 8.23975 3.59352 8.23975L3.46994 8.64183C0.234623 18.771 10.2025 27.4515 19.8922 26.4587C22.2208 26.22 25.1903 24.9447 27.012 23.1082Z" fill="#ABAFC7"/>
<path d="M21.1482 18.9199C23.586 18.9364 26.1323 17.7971 27.6403 16.1975C26.321 19.5462 22.5013 21.6985 17.3791 21.014C13.0901 20.4402 9.00451 16.1243 8.58375 11.7997C8.27601 8.65238 9.37283 6.77401 11.1804 4.49536C10.5522 5.68713 10.3174 6.60612 10.259 7.19236C9.57237 14.0006 15.6976 18.884 21.1482 18.9199Z" fill="#ABAFC7"/>
<path d="M27.3957 10.4635C27.0168 11.3328 24.8349 12.9743 23.8713 13.1795C20.0558 13.9924 17.6123 12.1831 16.3322 10.1242C16.142 9.81672 15.7903 8.977 15.7273 8.7633C15.2309 7.07541 15.459 4.52248 16.9399 3.20111C16.4938 4.45768 16.4287 5.9171 16.6635 6.86593C16.8057 7.43951 17.2391 8.44109 17.6729 9.07103C18.462 10.2185 18.9626 10.4973 19.9762 11.1067C20.4329 11.381 20.9227 11.6011 21.1342 11.6613C22.0954 11.9444 24.1248 12.6897 27.396 10.4635" fill="#ABAFC7"/>
</svg>
