<svg width="60" height="48" viewBox="0 0 60 48" fill="none" xmlns="http://www.w3.org/2000/svg">
<path fill-rule="evenodd" clip-rule="evenodd" d="M3.69501 47.7149C1.23167 40.6767 0 33.6973 0 26.7764C0 18.7999 2.11144 12.3776 6.33431 7.50957C10.5572 2.64153 16.7155 0.20752 24.8094 0.20752V11.2926C18.5924 11.2926 15.4839 15.2809 15.4839 23.2574V25.8967H26.7449V47.7149H3.69501ZM36.9502 47.7149C34.6041 40.5594 33.4311 33.58 33.4311 26.7764C33.4311 18.7999 35.5132 12.3776 39.6774 7.50957C43.8417 2.64153 49.9707 0.20752 58.0645 0.20752V11.2926C51.9648 11.2926 48.915 15.2809 48.915 23.2574V25.8967H60V47.7149H36.9502Z" fill="white"/>
</svg>
