<svg width="24" height="25" viewBox="0 0 24 25" fill="none" xmlns="http://www.w3.org/2000/svg">
<path d="M21.4258 11.2863L4.42576 3.28633C4.25458 3.20578 4.06406 3.17544 3.87632 3.19884C3.68859 3.22224 3.51134 3.29841 3.36516 3.41851C3.21899 3.53862 3.10988 3.69772 3.05051 3.87735C2.99114 4.05698 2.98395 4.24977 3.02976 4.43333L4.24176 9.28233L11.9998 12.1913L4.24176 15.1003L3.02976 19.9493C2.98309 20.133 2.98968 20.3262 3.04877 20.5063C3.10787 20.6864 3.21702 20.8459 3.36346 20.9662C3.5099 21.0865 3.68757 21.1627 3.8757 21.1857C4.06382 21.2088 4.25461 21.1778 4.42576 21.0963L21.4258 13.0963C21.5976 13.0156 21.7428 12.8876 21.8446 12.7273C21.9463 12.5671 22.0004 12.3812 22.0004 12.1913C22.0004 12.0015 21.9463 11.8156 21.8446 11.6553C21.7428 11.4951 21.5976 11.3671 21.4258 11.2863Z" fill="#ABAFC7"/>
</svg>
