<svg width="98" height="98" viewBox="0 0 98 98" fill="none" xmlns="http://www.w3.org/2000/svg">
<circle cx="49" cy="48.6807" r="48.5" fill="#4C40F7"/>
<path d="M50.5612 31.5679C50.2527 31.3466 49.8821 31.2285 49.5025 31.2305C49.1228 31.2325 48.7535 31.3544 48.4473 31.5789C45.085 34.0154 34.833 42.3094 34.833 52.8474C34.833 58.8002 38.4043 63.9262 43.512 66.2234C42.6381 64.9936 42.1679 63.5227 42.1663 62.0141C42.1352 56.1089 48.6893 49.3769 48.968 49.1807C49.1228 49.0698 49.3084 49.0102 49.4988 49.0102C49.6891 49.0102 49.8748 49.0698 50.0295 49.1807C50.3082 49.3769 56.833 54.6331 56.833 62.0177C56.833 63.5834 56.3288 65.0299 55.4892 66.2234C60.595 63.9262 64.1663 58.8021 64.1663 52.8566C64.1663 42.1114 53.9327 33.9604 50.5612 31.5679V31.5679Z" fill="white"/>
</svg>
