<svg width="98" height="98" viewBox="0 0 98 98" fill="none" xmlns="http://www.w3.org/2000/svg">
<circle cx="49" cy="48.6807" r="48.5" fill="#FF2D59"/>
<path d="M48.3115 40.8457H41.8365C41.1523 40.8455 40.4845 41.0559 39.924 41.4483C39.3634 41.8407 38.9372 42.3961 38.7032 43.0391L32.4365 60.2757C32.2148 60.8841 32.3665 61.5657 32.8232 62.0241L33.3115 62.5124L44.0148 51.8091C44.0132 51.7657 44.0015 51.7224 44.0015 51.6791C44.0015 51.1846 44.1481 50.7013 44.4228 50.2901C44.6975 49.879 45.088 49.5586 45.5448 49.3694C46.0016 49.1801 46.5043 49.1306 46.9892 49.2271C47.4742 49.3236 47.9196 49.5617 48.2693 49.9113C48.6189 50.2609 48.857 50.7064 48.9535 51.1913C49.0499 51.6763 49.0004 52.179 48.8112 52.6358C48.622 53.0926 48.3016 53.483 47.8904 53.7577C47.4793 54.0324 46.996 54.1791 46.5015 54.1791C46.4582 54.1791 46.4148 54.1674 46.3715 54.1657L35.6682 64.8691L36.1565 65.3574C36.3806 65.582 36.6643 65.7378 36.9741 65.8064C37.284 65.8749 37.6069 65.8533 37.9048 65.7441L55.1415 59.4757C55.7845 59.2417 56.3399 58.8155 56.7323 58.2549C57.1247 57.6944 57.3351 57.0266 57.3348 56.3424V49.8674L60.6665 46.5374L51.6432 37.5141L48.3115 40.8457ZM62.2332 44.2824L53.8998 35.9491L57.4332 32.4141L65.7665 40.7474L62.2332 44.2824Z" fill="white"/>
</svg>
