<svg width="17" height="16" viewBox="0 0 17 16" fill="none" xmlns="http://www.w3.org/2000/svg">
<path d="M16.017 6.26915C15.9643 6.10784 15.8261 5.99263 15.6582 5.96629L10.6545 5.25523L8.40278 0.728828C8.32707 0.577399 8.17235 0.481934 8.00446 0.481934C7.83657 0.481934 7.68185 0.577399 7.60613 0.73212L5.38408 5.27169L0.380347 6.01567C0.212459 6.04201 0.0741979 6.15722 0.0215271 6.31853C-0.0311438 6.47983 0.0149432 6.65759 0.136745 6.77281L3.76774 10.2919L2.9283 15.2759C2.89867 15.4438 2.9678 15.6116 3.10607 15.7104C3.18178 15.7664 3.27395 15.796 3.36613 15.796C3.43855 15.796 3.50768 15.7795 3.57352 15.7433L8.04067 13.3764L12.521 15.717C12.5868 15.7499 12.656 15.7664 12.7251 15.7664C12.9687 15.7664 13.1695 15.5656 13.1695 15.322C13.1695 15.2857 13.1662 15.2528 13.1563 15.2199L12.2906 10.2656L15.8985 6.72672C16.0269 6.60822 16.0697 6.43045 16.017 6.26915Z" fill="#4C40F7"/>
</svg>
